<mxfile host="app.diagrams.net" modified="2020-08-03T11:38:58.295Z" agent="5.0 (Windows NT 10.0; Win64; x64) AppleWebKit/537.36 (KHTML, like Gecko) Chrome/84.0.4147.105 Safari/537.36" etag="Mz3obNcAuKjdrAn86eYm" version="13.5.8" type="github">
  <diagram id="MYWh3xGumpN65zhYnzHV" name="Page-1">
    <mxGraphModel dx="2424" dy="761" grid="1" gridSize="10" guides="1" tooltips="1" connect="1" arrows="1" fold="1" page="1" pageScale="1" pageWidth="850" pageHeight="1100" math="0" shadow="0">
      <root>
        <mxCell id="0" />
        <mxCell id="1" parent="0" />
        <mxCell id="3sjaLSUX4elg7d6stFZi-1" value="Employee" style="rounded=0;whiteSpace=wrap;html=1;" vertex="1" parent="1">
          <mxGeometry x="20" y="220" width="90" height="40" as="geometry" />
        </mxCell>
        <mxCell id="3sjaLSUX4elg7d6stFZi-2" value="Company" style="rounded=0;whiteSpace=wrap;html=1;" vertex="1" parent="1">
          <mxGeometry x="130" y="440" width="90" height="40" as="geometry" />
        </mxCell>
        <mxCell id="3sjaLSUX4elg7d6stFZi-3" value="Stock" style="rounded=0;whiteSpace=wrap;html=1;" vertex="1" parent="1">
          <mxGeometry x="535" y="440" width="90" height="40" as="geometry" />
        </mxCell>
        <mxCell id="3sjaLSUX4elg7d6stFZi-4" value="OrderDetail" style="rounded=0;whiteSpace=wrap;html=1;" vertex="1" parent="1">
          <mxGeometry x="540" y="220" width="90" height="40" as="geometry" />
        </mxCell>
        <mxCell id="3sjaLSUX4elg7d6stFZi-5" value="Agent" style="rounded=0;whiteSpace=wrap;html=1;" vertex="1" parent="1">
          <mxGeometry x="120" y="680" width="90" height="40" as="geometry" />
        </mxCell>
        <mxCell id="3sjaLSUX4elg7d6stFZi-6" value="Order" style="rounded=0;whiteSpace=wrap;html=1;" vertex="1" parent="1">
          <mxGeometry x="230" y="220" width="90" height="40" as="geometry" />
        </mxCell>
        <mxCell id="3sjaLSUX4elg7d6stFZi-7" value="&lt;u&gt;empId&lt;/u&gt;" style="ellipse;whiteSpace=wrap;html=1;" vertex="1" parent="1">
          <mxGeometry x="-50" y="160" width="90" height="40" as="geometry" />
        </mxCell>
        <mxCell id="3sjaLSUX4elg7d6stFZi-9" value="name" style="ellipse;whiteSpace=wrap;html=1;" vertex="1" parent="1">
          <mxGeometry x="-100" y="200" width="90" height="40" as="geometry" />
        </mxCell>
        <mxCell id="3sjaLSUX4elg7d6stFZi-10" value="address&lt;span style=&quot;color: rgba(0 , 0 , 0 , 0) ; font-family: monospace ; font-size: 0px&quot;&gt;%3CmxGraphModel%3E%3Croot%3E%3CmxCell%20id%3D%220%22%2F%3E%3CmxCell%20id%3D%221%22%20parent%3D%220%22%2F%3E%3CmxCell%20id%3D%222%22%20value%3D%22empId%22%20style%3D%22ellipse%3BwhiteSpace%3Dwrap%3Bhtml%3D1%3B%22%20vertex%3D%221%22%20parent%3D%221%22%3E%3CmxGeometry%20x%3D%22-50%22%20y%3D%22160%22%20width%3D%2290%22%20height%3D%2240%22%20as%3D%22geometry%22%2F%3E%3C%2FmxCell%3E%3C%2Froot%3E%3C%2FmxGraphModel%3E&lt;/span&gt;" style="ellipse;whiteSpace=wrap;html=1;" vertex="1" parent="1">
          <mxGeometry x="-100" y="250" width="90" height="40" as="geometry" />
        </mxCell>
        <mxCell id="3sjaLSUX4elg7d6stFZi-11" value="empId" style="ellipse;whiteSpace=wrap;html=1;" vertex="1" parent="1">
          <mxGeometry x="-70" y="300" width="90" height="40" as="geometry" />
        </mxCell>
        <mxCell id="3sjaLSUX4elg7d6stFZi-12" value="contactNo" style="ellipse;whiteSpace=wrap;html=1;" vertex="1" parent="1">
          <mxGeometry x="20" y="280" width="90" height="40" as="geometry" />
        </mxCell>
        <mxCell id="3sjaLSUX4elg7d6stFZi-13" value="gender" style="ellipse;whiteSpace=wrap;html=1;" vertex="1" parent="1">
          <mxGeometry x="50" y="160" width="90" height="40" as="geometry" />
        </mxCell>
        <mxCell id="3sjaLSUX4elg7d6stFZi-15" value="" style="endArrow=none;html=1;entryX=0;entryY=0.5;entryDx=0;entryDy=0;exitX=0.978;exitY=0.725;exitDx=0;exitDy=0;exitPerimeter=0;" edge="1" parent="1" source="3sjaLSUX4elg7d6stFZi-9" target="3sjaLSUX4elg7d6stFZi-1">
          <mxGeometry width="50" height="50" relative="1" as="geometry">
            <mxPoint x="400" y="200" as="sourcePoint" />
            <mxPoint x="450" y="150" as="targetPoint" />
          </mxGeometry>
        </mxCell>
        <mxCell id="3sjaLSUX4elg7d6stFZi-16" value="" style="endArrow=none;html=1;entryX=1;entryY=1;entryDx=0;entryDy=0;exitX=0.5;exitY=0;exitDx=0;exitDy=0;" edge="1" parent="1" source="3sjaLSUX4elg7d6stFZi-1" target="3sjaLSUX4elg7d6stFZi-7">
          <mxGeometry width="50" height="50" relative="1" as="geometry">
            <mxPoint x="400" y="200" as="sourcePoint" />
            <mxPoint x="450" y="150" as="targetPoint" />
          </mxGeometry>
        </mxCell>
        <mxCell id="3sjaLSUX4elg7d6stFZi-17" value="" style="endArrow=none;html=1;entryX=0.5;entryY=1;entryDx=0;entryDy=0;exitX=0.75;exitY=0;exitDx=0;exitDy=0;" edge="1" parent="1" source="3sjaLSUX4elg7d6stFZi-1" target="3sjaLSUX4elg7d6stFZi-13">
          <mxGeometry width="50" height="50" relative="1" as="geometry">
            <mxPoint x="200" y="270" as="sourcePoint" />
            <mxPoint x="250" y="220" as="targetPoint" />
          </mxGeometry>
        </mxCell>
        <mxCell id="3sjaLSUX4elg7d6stFZi-18" value="" style="endArrow=none;html=1;entryX=0;entryY=1;entryDx=0;entryDy=0;exitX=1;exitY=0.5;exitDx=0;exitDy=0;" edge="1" parent="1" source="3sjaLSUX4elg7d6stFZi-10" target="3sjaLSUX4elg7d6stFZi-1">
          <mxGeometry width="50" height="50" relative="1" as="geometry">
            <mxPoint x="-10" y="320" as="sourcePoint" />
            <mxPoint x="40" y="270" as="targetPoint" />
          </mxGeometry>
        </mxCell>
        <mxCell id="3sjaLSUX4elg7d6stFZi-19" value="" style="endArrow=none;html=1;entryX=0.678;entryY=-0.025;entryDx=0;entryDy=0;entryPerimeter=0;exitX=0.25;exitY=1;exitDx=0;exitDy=0;" edge="1" parent="1" source="3sjaLSUX4elg7d6stFZi-1" target="3sjaLSUX4elg7d6stFZi-11">
          <mxGeometry width="50" height="50" relative="1" as="geometry">
            <mxPoint x="400" y="200" as="sourcePoint" />
            <mxPoint x="450" y="150" as="targetPoint" />
          </mxGeometry>
        </mxCell>
        <mxCell id="3sjaLSUX4elg7d6stFZi-20" value="" style="endArrow=none;html=1;entryX=0.5;entryY=0;entryDx=0;entryDy=0;exitX=0.5;exitY=1;exitDx=0;exitDy=0;" edge="1" parent="1" source="3sjaLSUX4elg7d6stFZi-1" target="3sjaLSUX4elg7d6stFZi-12">
          <mxGeometry width="50" height="50" relative="1" as="geometry">
            <mxPoint x="65" y="270" as="sourcePoint" />
            <mxPoint x="450" y="150" as="targetPoint" />
          </mxGeometry>
        </mxCell>
        <mxCell id="3sjaLSUX4elg7d6stFZi-21" value="&lt;u&gt;OrderId&lt;/u&gt;" style="ellipse;whiteSpace=wrap;html=1;" vertex="1" parent="1">
          <mxGeometry x="220" y="150" width="90" height="40" as="geometry" />
        </mxCell>
        <mxCell id="3sjaLSUX4elg7d6stFZi-22" value="OrderDate" style="ellipse;whiteSpace=wrap;html=1;" vertex="1" parent="1">
          <mxGeometry x="330" y="130" width="90" height="40" as="geometry" />
        </mxCell>
        <mxCell id="3sjaLSUX4elg7d6stFZi-23" value="" style="endArrow=none;html=1;" edge="1" parent="1" source="3sjaLSUX4elg7d6stFZi-22" target="3sjaLSUX4elg7d6stFZi-6">
          <mxGeometry width="50" height="50" relative="1" as="geometry">
            <mxPoint x="400" y="200" as="sourcePoint" />
            <mxPoint x="450" y="150" as="targetPoint" />
          </mxGeometry>
        </mxCell>
        <mxCell id="3sjaLSUX4elg7d6stFZi-24" value="" style="endArrow=none;html=1;entryX=0.411;entryY=0.025;entryDx=0;entryDy=0;exitX=0.5;exitY=1;exitDx=0;exitDy=0;entryPerimeter=0;" edge="1" parent="1" source="3sjaLSUX4elg7d6stFZi-21" target="3sjaLSUX4elg7d6stFZi-6">
          <mxGeometry width="50" height="50" relative="1" as="geometry">
            <mxPoint x="400" y="200" as="sourcePoint" />
            <mxPoint x="450" y="150" as="targetPoint" />
          </mxGeometry>
        </mxCell>
        <mxCell id="3sjaLSUX4elg7d6stFZi-25" value="handle" style="rhombus;whiteSpace=wrap;html=1;" vertex="1" parent="1">
          <mxGeometry x="130" y="200" width="80" height="80" as="geometry" />
        </mxCell>
        <mxCell id="3sjaLSUX4elg7d6stFZi-26" value="" style="endArrow=none;html=1;entryX=1;entryY=0.5;entryDx=0;entryDy=0;exitX=0;exitY=0.5;exitDx=0;exitDy=0;" edge="1" parent="1" source="3sjaLSUX4elg7d6stFZi-25" target="3sjaLSUX4elg7d6stFZi-1">
          <mxGeometry width="50" height="50" relative="1" as="geometry">
            <mxPoint x="400" y="200" as="sourcePoint" />
            <mxPoint x="450" y="150" as="targetPoint" />
          </mxGeometry>
        </mxCell>
        <mxCell id="3sjaLSUX4elg7d6stFZi-27" value="" style="endArrow=none;html=1;entryX=1;entryY=0.5;entryDx=0;entryDy=0;exitX=0;exitY=0.5;exitDx=0;exitDy=0;" edge="1" parent="1" source="3sjaLSUX4elg7d6stFZi-6" target="3sjaLSUX4elg7d6stFZi-25">
          <mxGeometry width="50" height="50" relative="1" as="geometry">
            <mxPoint x="400" y="200" as="sourcePoint" />
            <mxPoint x="450" y="150" as="targetPoint" />
          </mxGeometry>
        </mxCell>
        <mxCell id="3sjaLSUX4elg7d6stFZi-32" value="has" style="rhombus;whiteSpace=wrap;html=1;" vertex="1" parent="1">
          <mxGeometry x="360" y="200" width="80" height="80" as="geometry" />
        </mxCell>
        <mxCell id="3sjaLSUX4elg7d6stFZi-33" value="" style="endArrow=none;html=1;entryX=1;entryY=0.5;entryDx=0;entryDy=0;exitX=0;exitY=0.5;exitDx=0;exitDy=0;" edge="1" parent="1" target="3sjaLSUX4elg7d6stFZi-32" source="3sjaLSUX4elg7d6stFZi-4">
          <mxGeometry width="50" height="50" relative="1" as="geometry">
            <mxPoint x="500" y="240" as="sourcePoint" />
            <mxPoint x="720" y="150" as="targetPoint" />
          </mxGeometry>
        </mxCell>
        <mxCell id="3sjaLSUX4elg7d6stFZi-34" value="" style="endArrow=none;html=1;entryX=0;entryY=0.5;entryDx=0;entryDy=0;exitX=1;exitY=0.5;exitDx=0;exitDy=0;" edge="1" parent="1" source="3sjaLSUX4elg7d6stFZi-6" target="3sjaLSUX4elg7d6stFZi-32">
          <mxGeometry width="50" height="50" relative="1" as="geometry">
            <mxPoint x="400" y="300" as="sourcePoint" />
            <mxPoint x="450" y="250" as="targetPoint" />
          </mxGeometry>
        </mxCell>
        <mxCell id="3sjaLSUX4elg7d6stFZi-35" value="qty" style="ellipse;whiteSpace=wrap;html=1;" vertex="1" parent="1">
          <mxGeometry x="460" y="150" width="90" height="40" as="geometry" />
        </mxCell>
        <mxCell id="3sjaLSUX4elg7d6stFZi-36" value="unitPrice" style="ellipse;whiteSpace=wrap;html=1;" vertex="1" parent="1">
          <mxGeometry x="630" y="160" width="90" height="40" as="geometry" />
        </mxCell>
        <mxCell id="3sjaLSUX4elg7d6stFZi-37" value="" style="endArrow=none;html=1;entryX=0.5;entryY=1;entryDx=0;entryDy=0;exitX=0.25;exitY=0;exitDx=0;exitDy=0;" edge="1" parent="1" source="3sjaLSUX4elg7d6stFZi-4" target="3sjaLSUX4elg7d6stFZi-35">
          <mxGeometry width="50" height="50" relative="1" as="geometry">
            <mxPoint x="400" y="200" as="sourcePoint" />
            <mxPoint x="450" y="150" as="targetPoint" />
            <Array as="points">
              <mxPoint x="540" y="220" />
            </Array>
          </mxGeometry>
        </mxCell>
        <mxCell id="3sjaLSUX4elg7d6stFZi-38" value="" style="endArrow=none;html=1;entryX=0;entryY=1;entryDx=0;entryDy=0;exitX=0.578;exitY=0;exitDx=0;exitDy=0;exitPerimeter=0;" edge="1" parent="1" source="3sjaLSUX4elg7d6stFZi-4" target="3sjaLSUX4elg7d6stFZi-36">
          <mxGeometry width="50" height="50" relative="1" as="geometry">
            <mxPoint x="602" y="217" as="sourcePoint" />
            <mxPoint x="450" y="150" as="targetPoint" />
          </mxGeometry>
        </mxCell>
        <mxCell id="3sjaLSUX4elg7d6stFZi-39" value="&lt;u&gt;OrderId&lt;/u&gt;" style="ellipse;whiteSpace=wrap;html=1;" vertex="1" parent="1">
          <mxGeometry x="680" y="220" width="90" height="40" as="geometry" />
        </mxCell>
        <mxCell id="3sjaLSUX4elg7d6stFZi-40" value="&lt;u&gt;itemCode&lt;/u&gt;" style="ellipse;whiteSpace=wrap;html=1;" vertex="1" parent="1">
          <mxGeometry x="550" y="100" width="90" height="40" as="geometry" />
        </mxCell>
        <mxCell id="3sjaLSUX4elg7d6stFZi-41" value="" style="endArrow=none;html=1;entryX=1;entryY=0.75;entryDx=0;entryDy=0;" edge="1" parent="1" target="3sjaLSUX4elg7d6stFZi-4">
          <mxGeometry width="50" height="50" relative="1" as="geometry">
            <mxPoint x="680" y="240" as="sourcePoint" />
            <mxPoint x="450" y="250" as="targetPoint" />
          </mxGeometry>
        </mxCell>
        <mxCell id="3sjaLSUX4elg7d6stFZi-42" value="" style="endArrow=none;html=1;entryX=0.589;entryY=1.1;entryDx=0;entryDy=0;entryPerimeter=0;exitX=0.333;exitY=0.05;exitDx=0;exitDy=0;exitPerimeter=0;" edge="1" parent="1" source="3sjaLSUX4elg7d6stFZi-4" target="3sjaLSUX4elg7d6stFZi-40">
          <mxGeometry width="50" height="50" relative="1" as="geometry">
            <mxPoint x="400" y="300" as="sourcePoint" />
            <mxPoint x="450" y="250" as="targetPoint" />
          </mxGeometry>
        </mxCell>
        <mxCell id="3sjaLSUX4elg7d6stFZi-43" value="has" style="rhombus;whiteSpace=wrap;html=1;" vertex="1" parent="1">
          <mxGeometry x="540" y="300" width="80" height="80" as="geometry" />
        </mxCell>
        <mxCell id="3sjaLSUX4elg7d6stFZi-44" value="" style="endArrow=none;html=1;exitX=0.5;exitY=0;exitDx=0;exitDy=0;" edge="1" parent="1" source="3sjaLSUX4elg7d6stFZi-43">
          <mxGeometry width="50" height="50" relative="1" as="geometry">
            <mxPoint x="560" y="320" as="sourcePoint" />
            <mxPoint x="580" y="262" as="targetPoint" />
          </mxGeometry>
        </mxCell>
        <mxCell id="3sjaLSUX4elg7d6stFZi-45" value="" style="endArrow=none;html=1;entryX=0.5;entryY=1;entryDx=0;entryDy=0;exitX=0.5;exitY=0;exitDx=0;exitDy=0;" edge="1" parent="1" source="3sjaLSUX4elg7d6stFZi-3" target="3sjaLSUX4elg7d6stFZi-43">
          <mxGeometry width="50" height="50" relative="1" as="geometry">
            <mxPoint x="400" y="380" as="sourcePoint" />
            <mxPoint x="450" y="330" as="targetPoint" />
          </mxGeometry>
        </mxCell>
        <mxCell id="3sjaLSUX4elg7d6stFZi-47" value="&lt;u&gt;itemCode&lt;/u&gt;" style="ellipse;whiteSpace=wrap;html=1;" vertex="1" parent="1">
          <mxGeometry x="630" y="390" width="90" height="40" as="geometry" />
        </mxCell>
        <mxCell id="3sjaLSUX4elg7d6stFZi-48" value="description" style="ellipse;whiteSpace=wrap;html=1;" vertex="1" parent="1">
          <mxGeometry x="650" y="440" width="90" height="40" as="geometry" />
        </mxCell>
        <mxCell id="3sjaLSUX4elg7d6stFZi-49" value="category" style="ellipse;whiteSpace=wrap;html=1;" vertex="1" parent="1">
          <mxGeometry x="620" y="500" width="90" height="40" as="geometry" />
        </mxCell>
        <mxCell id="3sjaLSUX4elg7d6stFZi-50" value="productionDate" style="ellipse;whiteSpace=wrap;html=1;" vertex="1" parent="1">
          <mxGeometry x="625" y="340" width="90" height="40" as="geometry" />
        </mxCell>
        <mxCell id="3sjaLSUX4elg7d6stFZi-51" value="" style="endArrow=none;html=1;entryX=0.022;entryY=0.725;entryDx=0;entryDy=0;entryPerimeter=0;exitX=0.75;exitY=0;exitDx=0;exitDy=0;" edge="1" parent="1" source="3sjaLSUX4elg7d6stFZi-3" target="3sjaLSUX4elg7d6stFZi-50">
          <mxGeometry width="50" height="50" relative="1" as="geometry">
            <mxPoint x="400" y="380" as="sourcePoint" />
            <mxPoint x="450" y="330" as="targetPoint" />
          </mxGeometry>
        </mxCell>
        <mxCell id="3sjaLSUX4elg7d6stFZi-52" value="" style="endArrow=none;html=1;entryX=0;entryY=0.5;entryDx=0;entryDy=0;exitX=0.75;exitY=0;exitDx=0;exitDy=0;" edge="1" parent="1" source="3sjaLSUX4elg7d6stFZi-3" target="3sjaLSUX4elg7d6stFZi-47">
          <mxGeometry width="50" height="50" relative="1" as="geometry">
            <mxPoint x="400" y="380" as="sourcePoint" />
            <mxPoint x="450" y="330" as="targetPoint" />
          </mxGeometry>
        </mxCell>
        <mxCell id="3sjaLSUX4elg7d6stFZi-53" value="" style="endArrow=none;html=1;entryX=0;entryY=0.5;entryDx=0;entryDy=0;exitX=1;exitY=0.5;exitDx=0;exitDy=0;" edge="1" parent="1" source="3sjaLSUX4elg7d6stFZi-3" target="3sjaLSUX4elg7d6stFZi-48">
          <mxGeometry width="50" height="50" relative="1" as="geometry">
            <mxPoint x="400" y="380" as="sourcePoint" />
            <mxPoint x="450" y="330" as="targetPoint" />
          </mxGeometry>
        </mxCell>
        <mxCell id="3sjaLSUX4elg7d6stFZi-54" value="" style="endArrow=none;html=1;entryX=0.078;entryY=0.3;entryDx=0;entryDy=0;entryPerimeter=0;exitX=0.75;exitY=1;exitDx=0;exitDy=0;" edge="1" parent="1" source="3sjaLSUX4elg7d6stFZi-3" target="3sjaLSUX4elg7d6stFZi-49">
          <mxGeometry width="50" height="50" relative="1" as="geometry">
            <mxPoint x="400" y="380" as="sourcePoint" />
            <mxPoint x="450" y="330" as="targetPoint" />
          </mxGeometry>
        </mxCell>
        <mxCell id="3sjaLSUX4elg7d6stFZi-55" value="expiryDate" style="ellipse;whiteSpace=wrap;html=1;" vertex="1" parent="1">
          <mxGeometry x="550" y="540" width="90" height="40" as="geometry" />
        </mxCell>
        <mxCell id="3sjaLSUX4elg7d6stFZi-56" value="" style="endArrow=none;html=1;entryX=0.383;entryY=-0.025;entryDx=0;entryDy=0;entryPerimeter=0;exitX=0.367;exitY=1;exitDx=0;exitDy=0;exitPerimeter=0;" edge="1" parent="1" target="3sjaLSUX4elg7d6stFZi-55" source="3sjaLSUX4elg7d6stFZi-3">
          <mxGeometry width="50" height="50" relative="1" as="geometry">
            <mxPoint x="490" y="640" as="sourcePoint" />
            <mxPoint x="337.5" y="530" as="targetPoint" />
          </mxGeometry>
        </mxCell>
        <mxCell id="3sjaLSUX4elg7d6stFZi-57" value="buyingPrice" style="ellipse;whiteSpace=wrap;html=1;" vertex="1" parent="1">
          <mxGeometry x="450" y="510" width="90" height="40" as="geometry" />
        </mxCell>
        <mxCell id="3sjaLSUX4elg7d6stFZi-58" value="" style="endArrow=none;html=1;exitX=0;exitY=1;exitDx=0;exitDy=0;" edge="1" parent="1" source="3sjaLSUX4elg7d6stFZi-3">
          <mxGeometry width="50" height="50" relative="1" as="geometry">
            <mxPoint x="427.5" y="610" as="sourcePoint" />
            <mxPoint x="495" y="510" as="targetPoint" />
          </mxGeometry>
        </mxCell>
        <mxCell id="3sjaLSUX4elg7d6stFZi-59" value="sellingPrice" style="ellipse;whiteSpace=wrap;html=1;" vertex="1" parent="1">
          <mxGeometry x="480" y="370" width="90" height="40" as="geometry" />
        </mxCell>
        <mxCell id="3sjaLSUX4elg7d6stFZi-60" value="" style="endArrow=none;html=1;exitX=0;exitY=0;exitDx=0;exitDy=0;entryX=0.5;entryY=1;entryDx=0;entryDy=0;" edge="1" parent="1" target="3sjaLSUX4elg7d6stFZi-59" source="3sjaLSUX4elg7d6stFZi-3">
          <mxGeometry width="50" height="50" relative="1" as="geometry">
            <mxPoint x="427.5" y="460" as="sourcePoint" />
            <mxPoint x="560" y="405" as="targetPoint" />
          </mxGeometry>
        </mxCell>
        <mxCell id="3sjaLSUX4elg7d6stFZi-63" value="miStockLevel" style="ellipse;whiteSpace=wrap;html=1;" vertex="1" parent="1">
          <mxGeometry x="382.5" y="350" width="90" height="40" as="geometry" />
        </mxCell>
        <mxCell id="3sjaLSUX4elg7d6stFZi-64" value="" style="endArrow=none;html=1;entryX=0.628;entryY=1.025;entryDx=0;entryDy=0;entryPerimeter=0;exitX=0;exitY=0;exitDx=0;exitDy=0;" edge="1" parent="1" target="3sjaLSUX4elg7d6stFZi-63" source="3sjaLSUX4elg7d6stFZi-3">
          <mxGeometry width="50" height="50" relative="1" as="geometry">
            <mxPoint x="360" y="450" as="sourcePoint" />
            <mxPoint x="207.5" y="340" as="targetPoint" />
          </mxGeometry>
        </mxCell>
        <mxCell id="3sjaLSUX4elg7d6stFZi-69" value="&lt;u&gt;compantId&lt;/u&gt;" style="ellipse;whiteSpace=wrap;html=1;" vertex="1" parent="1">
          <mxGeometry x="90" y="370" width="90" height="40" as="geometry" />
        </mxCell>
        <mxCell id="3sjaLSUX4elg7d6stFZi-70" value="" style="endArrow=none;html=1;exitX=0;exitY=0;exitDx=0;exitDy=0;entryX=0.5;entryY=1;entryDx=0;entryDy=0;" edge="1" parent="1" target="3sjaLSUX4elg7d6stFZi-69">
          <mxGeometry width="50" height="50" relative="1" as="geometry">
            <mxPoint x="145" y="440" as="sourcePoint" />
            <mxPoint x="170" y="405" as="targetPoint" />
          </mxGeometry>
        </mxCell>
        <mxCell id="3sjaLSUX4elg7d6stFZi-71" value="companyName" style="ellipse;whiteSpace=wrap;html=1;" vertex="1" parent="1">
          <mxGeometry x="190" y="370" width="90" height="40" as="geometry" />
        </mxCell>
        <mxCell id="3sjaLSUX4elg7d6stFZi-72" value="" style="endArrow=none;html=1;exitX=0.75;exitY=0;exitDx=0;exitDy=0;" edge="1" parent="1" target="3sjaLSUX4elg7d6stFZi-71" source="3sjaLSUX4elg7d6stFZi-2">
          <mxGeometry width="50" height="50" relative="1" as="geometry">
            <mxPoint x="245" y="440" as="sourcePoint" />
            <mxPoint x="270" y="405" as="targetPoint" />
          </mxGeometry>
        </mxCell>
        <mxCell id="3sjaLSUX4elg7d6stFZi-73" value="email" style="ellipse;whiteSpace=wrap;html=1;" vertex="1" parent="1">
          <mxGeometry x="-10" y="390" width="90" height="40" as="geometry" />
        </mxCell>
        <mxCell id="3sjaLSUX4elg7d6stFZi-74" value="" style="endArrow=none;html=1;exitX=0;exitY=0.5;exitDx=0;exitDy=0;entryX=1;entryY=1;entryDx=0;entryDy=0;" edge="1" parent="1" target="3sjaLSUX4elg7d6stFZi-73" source="3sjaLSUX4elg7d6stFZi-2">
          <mxGeometry width="50" height="50" relative="1" as="geometry">
            <mxPoint x="45" y="460" as="sourcePoint" />
            <mxPoint x="70" y="425" as="targetPoint" />
          </mxGeometry>
        </mxCell>
        <mxCell id="3sjaLSUX4elg7d6stFZi-75" value="phoneNo" style="ellipse;whiteSpace=wrap;html=1;" vertex="1" parent="1">
          <mxGeometry x="-30" y="450" width="90" height="40" as="geometry" />
        </mxCell>
        <mxCell id="3sjaLSUX4elg7d6stFZi-76" value="" style="endArrow=none;html=1;exitX=0;exitY=0.75;exitDx=0;exitDy=0;entryX=1;entryY=0.5;entryDx=0;entryDy=0;" edge="1" parent="1" target="3sjaLSUX4elg7d6stFZi-75" source="3sjaLSUX4elg7d6stFZi-2">
          <mxGeometry width="50" height="50" relative="1" as="geometry">
            <mxPoint x="25" y="520" as="sourcePoint" />
            <mxPoint x="70" y="470" as="targetPoint" />
          </mxGeometry>
        </mxCell>
        <mxCell id="3sjaLSUX4elg7d6stFZi-78" value="entryDate" style="ellipse;whiteSpace=wrap;html=1;" vertex="1" parent="1">
          <mxGeometry x="20" y="510" width="90" height="40" as="geometry" />
        </mxCell>
        <mxCell id="3sjaLSUX4elg7d6stFZi-79" value="" style="endArrow=none;html=1;exitX=0;exitY=1;exitDx=0;exitDy=0;" edge="1" parent="1" target="3sjaLSUX4elg7d6stFZi-78" source="3sjaLSUX4elg7d6stFZi-2">
          <mxGeometry width="50" height="50" relative="1" as="geometry">
            <mxPoint x="75" y="580" as="sourcePoint" />
            <mxPoint x="100" y="545" as="targetPoint" />
          </mxGeometry>
        </mxCell>
        <mxCell id="3sjaLSUX4elg7d6stFZi-80" value="sell" style="rhombus;whiteSpace=wrap;html=1;" vertex="1" parent="1">
          <mxGeometry x="310" y="420" width="80" height="80" as="geometry" />
        </mxCell>
        <mxCell id="3sjaLSUX4elg7d6stFZi-81" value="" style="endArrow=none;html=1;exitX=0;exitY=0.5;exitDx=0;exitDy=0;" edge="1" parent="1" source="3sjaLSUX4elg7d6stFZi-3">
          <mxGeometry width="50" height="50" relative="1" as="geometry">
            <mxPoint x="440" y="460" as="sourcePoint" />
            <mxPoint x="390" y="460" as="targetPoint" />
          </mxGeometry>
        </mxCell>
        <mxCell id="3sjaLSUX4elg7d6stFZi-82" value="" style="endArrow=none;html=1;entryX=0;entryY=0.5;entryDx=0;entryDy=0;exitX=1;exitY=0.5;exitDx=0;exitDy=0;" edge="1" parent="1" target="3sjaLSUX4elg7d6stFZi-80">
          <mxGeometry width="50" height="50" relative="1" as="geometry">
            <mxPoint x="220" y="460" as="sourcePoint" />
            <mxPoint x="350" y="470" as="targetPoint" />
          </mxGeometry>
        </mxCell>
        <mxCell id="3sjaLSUX4elg7d6stFZi-83" value="Employee" style="rounded=0;whiteSpace=wrap;html=1;" vertex="1" parent="1">
          <mxGeometry x="20" y="220" width="90" height="40" as="geometry" />
        </mxCell>
        <mxCell id="3sjaLSUX4elg7d6stFZi-84" value="gender" style="ellipse;whiteSpace=wrap;html=1;" vertex="1" parent="1">
          <mxGeometry x="50" y="160" width="90" height="40" as="geometry" />
        </mxCell>
        <mxCell id="3sjaLSUX4elg7d6stFZi-85" value="Employee" style="rounded=0;whiteSpace=wrap;html=1;" vertex="1" parent="1">
          <mxGeometry x="20" y="220" width="90" height="40" as="geometry" />
        </mxCell>
        <mxCell id="3sjaLSUX4elg7d6stFZi-86" value="gender" style="ellipse;whiteSpace=wrap;html=1;" vertex="1" parent="1">
          <mxGeometry x="50" y="160" width="90" height="40" as="geometry" />
        </mxCell>
        <mxCell id="3sjaLSUX4elg7d6stFZi-87" value="&lt;u&gt;agentId&lt;/u&gt;" style="ellipse;whiteSpace=wrap;html=1;" vertex="1" parent="1">
          <mxGeometry x="-10" y="690" width="90" height="40" as="geometry" />
        </mxCell>
        <mxCell id="3sjaLSUX4elg7d6stFZi-88" value="" style="endArrow=none;html=1;exitX=0;exitY=0.5;exitDx=0;exitDy=0;" edge="1" parent="1" target="3sjaLSUX4elg7d6stFZi-87" source="3sjaLSUX4elg7d6stFZi-5">
          <mxGeometry width="50" height="50" relative="1" as="geometry">
            <mxPoint x="100" y="660" as="sourcePoint" />
            <mxPoint x="70" y="725" as="targetPoint" />
          </mxGeometry>
        </mxCell>
        <mxCell id="3sjaLSUX4elg7d6stFZi-89" value="agentName" style="ellipse;whiteSpace=wrap;html=1;" vertex="1" parent="1">
          <mxGeometry x="-10" y="630" width="90" height="40" as="geometry" />
        </mxCell>
        <mxCell id="3sjaLSUX4elg7d6stFZi-90" value="" style="endArrow=none;html=1;exitX=0.25;exitY=0;exitDx=0;exitDy=0;" edge="1" parent="1" target="3sjaLSUX4elg7d6stFZi-89" source="3sjaLSUX4elg7d6stFZi-5">
          <mxGeometry width="50" height="50" relative="1" as="geometry">
            <mxPoint x="100" y="600" as="sourcePoint" />
            <mxPoint x="70" y="665" as="targetPoint" />
          </mxGeometry>
        </mxCell>
        <mxCell id="3sjaLSUX4elg7d6stFZi-91" value="email" style="ellipse;whiteSpace=wrap;html=1;" vertex="1" parent="1">
          <mxGeometry x="30" y="750" width="90" height="40" as="geometry" />
        </mxCell>
        <mxCell id="3sjaLSUX4elg7d6stFZi-92" value="" style="endArrow=none;html=1;exitX=0;exitY=1;exitDx=0;exitDy=0;" edge="1" parent="1" target="3sjaLSUX4elg7d6stFZi-91">
          <mxGeometry width="50" height="50" relative="1" as="geometry">
            <mxPoint x="140" y="720" as="sourcePoint" />
            <mxPoint x="110" y="785" as="targetPoint" />
          </mxGeometry>
        </mxCell>
        <mxCell id="3sjaLSUX4elg7d6stFZi-93" value="entryDate" style="ellipse;whiteSpace=wrap;html=1;" vertex="1" parent="1">
          <mxGeometry x="130" y="765" width="90" height="40" as="geometry" />
        </mxCell>
        <mxCell id="3sjaLSUX4elg7d6stFZi-94" value="" style="endArrow=none;html=1;exitX=0.589;exitY=1.025;exitDx=0;exitDy=0;exitPerimeter=0;" edge="1" parent="1" target="3sjaLSUX4elg7d6stFZi-93" source="3sjaLSUX4elg7d6stFZi-5">
          <mxGeometry width="50" height="50" relative="1" as="geometry">
            <mxPoint x="240" y="735" as="sourcePoint" />
            <mxPoint x="210" y="800" as="targetPoint" />
          </mxGeometry>
        </mxCell>
        <mxCell id="3sjaLSUX4elg7d6stFZi-95" value="has" style="rhombus;whiteSpace=wrap;html=1;" vertex="1" parent="1">
          <mxGeometry x="140" y="540" width="80" height="80" as="geometry" />
        </mxCell>
        <mxCell id="3sjaLSUX4elg7d6stFZi-96" value="" style="endArrow=none;html=1;exitX=0.578;exitY=0.975;exitDx=0;exitDy=0;entryX=0.5;entryY=0;entryDx=0;entryDy=0;exitPerimeter=0;" edge="1" parent="1" source="3sjaLSUX4elg7d6stFZi-2" target="3sjaLSUX4elg7d6stFZi-95">
          <mxGeometry width="50" height="50" relative="1" as="geometry">
            <mxPoint x="365" y="580" as="sourcePoint" />
            <mxPoint x="220" y="580" as="targetPoint" />
          </mxGeometry>
        </mxCell>
        <mxCell id="3sjaLSUX4elg7d6stFZi-97" value="" style="endArrow=none;html=1;entryX=0.5;entryY=1;entryDx=0;entryDy=0;exitX=0.644;exitY=0.025;exitDx=0;exitDy=0;exitPerimeter=0;" edge="1" parent="1" target="3sjaLSUX4elg7d6stFZi-95" source="3sjaLSUX4elg7d6stFZi-5">
          <mxGeometry width="50" height="50" relative="1" as="geometry">
            <mxPoint x="50" y="580" as="sourcePoint" />
            <mxPoint x="180" y="590" as="targetPoint" />
          </mxGeometry>
        </mxCell>
        <mxCell id="3sjaLSUX4elg7d6stFZi-98" value="&lt;u&gt;compantId&lt;/u&gt;" style="ellipse;whiteSpace=wrap;html=1;" vertex="1" parent="1">
          <mxGeometry x="220" y="640" width="90" height="40" as="geometry" />
        </mxCell>
        <mxCell id="3sjaLSUX4elg7d6stFZi-99" value="" style="endArrow=none;html=1;exitX=1;exitY=0.5;exitDx=0;exitDy=0;entryX=0;entryY=1;entryDx=0;entryDy=0;" edge="1" parent="1" target="3sjaLSUX4elg7d6stFZi-98" source="3sjaLSUX4elg7d6stFZi-5">
          <mxGeometry width="50" height="50" relative="1" as="geometry">
            <mxPoint x="265" y="700" as="sourcePoint" />
            <mxPoint x="290" y="665" as="targetPoint" />
          </mxGeometry>
        </mxCell>
        <mxCell id="3sjaLSUX4elg7d6stFZi-101" value="&lt;u&gt;empId&lt;/u&gt;" style="ellipse;whiteSpace=wrap;html=1;" vertex="1" parent="1">
          <mxGeometry x="-50" y="160" width="90" height="40" as="geometry" />
        </mxCell>
        <mxCell id="3sjaLSUX4elg7d6stFZi-102" value="" style="endArrow=none;html=1;exitX=0.578;exitY=1.075;exitDx=0;exitDy=0;exitPerimeter=0;" edge="1" parent="1" source="3sjaLSUX4elg7d6stFZi-6" target="3sjaLSUX4elg7d6stFZi-103">
          <mxGeometry width="50" height="50" relative="1" as="geometry">
            <mxPoint x="310" y="350" as="sourcePoint" />
            <mxPoint x="271.8198051533948" y="324.14213562373106" as="targetPoint" />
          </mxGeometry>
        </mxCell>
        <mxCell id="3sjaLSUX4elg7d6stFZi-103" value="&lt;u&gt;empId&lt;/u&gt;" style="ellipse;whiteSpace=wrap;html=1;" vertex="1" parent="1">
          <mxGeometry x="195" y="290" width="90" height="40" as="geometry" />
        </mxCell>
        <mxCell id="3sjaLSUX4elg7d6stFZi-104" value="&lt;b&gt;1&lt;/b&gt;" style="text;html=1;strokeColor=none;fillColor=none;align=center;verticalAlign=middle;whiteSpace=wrap;rounded=0;" vertex="1" parent="1">
          <mxGeometry x="100" y="220" width="40" height="20" as="geometry" />
        </mxCell>
        <mxCell id="3sjaLSUX4elg7d6stFZi-105" value="&lt;b&gt;M&lt;/b&gt;" style="text;html=1;strokeColor=none;fillColor=none;align=center;verticalAlign=middle;whiteSpace=wrap;rounded=0;" vertex="1" parent="1">
          <mxGeometry x="195" y="220" width="40" height="20" as="geometry" />
        </mxCell>
        <mxCell id="3sjaLSUX4elg7d6stFZi-106" value="&lt;b&gt;1&lt;/b&gt;" style="text;html=1;strokeColor=none;fillColor=none;align=center;verticalAlign=middle;whiteSpace=wrap;rounded=0;" vertex="1" parent="1">
          <mxGeometry x="330" y="210" width="40" height="20" as="geometry" />
        </mxCell>
        <mxCell id="3sjaLSUX4elg7d6stFZi-107" value="&lt;b&gt;M&lt;/b&gt;" style="text;html=1;strokeColor=none;fillColor=none;align=center;verticalAlign=middle;whiteSpace=wrap;rounded=0;" vertex="1" parent="1">
          <mxGeometry x="460" y="210" width="40" height="20" as="geometry" />
        </mxCell>
        <mxCell id="3sjaLSUX4elg7d6stFZi-108" value="&lt;b&gt;M&lt;/b&gt;&lt;span style=&quot;color: rgba(0 , 0 , 0 , 0) ; font-family: monospace ; font-size: 0px&quot;&gt;%3CmxGraphModel%3E%3Croot%3E%3CmxCell%20id%3D%220%22%2F%3E%3CmxCell%20id%3D%221%22%20parent%3D%220%22%2F%3E%3CmxCell%20id%3D%222%22%20value%3D%22%26lt%3Bb%26gt%3B1%26lt%3B%2Fb%26gt%3B%22%20style%3D%22text%3Bhtml%3D1%3BstrokeColor%3Dnone%3BfillColor%3Dnone%3Balign%3Dcenter%3BverticalAlign%3Dmiddle%3BwhiteSpace%3Dwrap%3Brounded%3D0%3B%22%20vertex%3D%221%22%20parent%3D%221%22%3E%3CmxGeometry%20x%3D%22100%22%20y%3D%22220%22%20width%3D%2240%22%20height%3D%2220%22%20as%3D%22geometry%22%2F%3E%3C%2FmxCell%3E%3C%2Froot%3E%3C%2FmxGraphModel%3E&lt;/span&gt;" style="text;html=1;strokeColor=none;fillColor=none;align=center;verticalAlign=middle;whiteSpace=wrap;rounded=0;" vertex="1" parent="1">
          <mxGeometry x="590" y="270" width="40" height="20" as="geometry" />
        </mxCell>
        <mxCell id="3sjaLSUX4elg7d6stFZi-109" value="&lt;b&gt;1&lt;/b&gt;" style="text;html=1;strokeColor=none;fillColor=none;align=center;verticalAlign=middle;whiteSpace=wrap;rounded=0;" vertex="1" parent="1">
          <mxGeometry x="570" y="390" width="40" height="20" as="geometry" />
        </mxCell>
        <mxCell id="3sjaLSUX4elg7d6stFZi-110" value="&lt;b&gt;M&lt;/b&gt;" style="text;html=1;strokeColor=none;fillColor=none;align=center;verticalAlign=middle;whiteSpace=wrap;rounded=0;" vertex="1" parent="1">
          <mxGeometry x="420" y="430" width="40" height="20" as="geometry" />
        </mxCell>
        <mxCell id="3sjaLSUX4elg7d6stFZi-111" value="&lt;b&gt;N&lt;/b&gt;" style="text;html=1;strokeColor=none;fillColor=none;align=center;verticalAlign=middle;whiteSpace=wrap;rounded=0;" vertex="1" parent="1">
          <mxGeometry x="245" y="430" width="40" height="20" as="geometry" />
        </mxCell>
        <mxCell id="3sjaLSUX4elg7d6stFZi-112" value="&lt;b&gt;1&lt;/b&gt;" style="text;html=1;strokeColor=none;fillColor=none;align=center;verticalAlign=middle;whiteSpace=wrap;rounded=0;" vertex="1" parent="1">
          <mxGeometry x="190" y="510" width="40" height="20" as="geometry" />
        </mxCell>
        <mxCell id="3sjaLSUX4elg7d6stFZi-113" value="&lt;b&gt;M&lt;/b&gt;" style="text;html=1;strokeColor=none;fillColor=none;align=center;verticalAlign=middle;whiteSpace=wrap;rounded=0;" vertex="1" parent="1">
          <mxGeometry x="180" y="630" width="40" height="20" as="geometry" />
        </mxCell>
        <mxCell id="3sjaLSUX4elg7d6stFZi-114" value="" style="endArrow=none;html=1;exitX=0.963;exitY=0.567;exitDx=0;exitDy=0;exitPerimeter=0;" edge="1" parent="1" source="3sjaLSUX4elg7d6stFZi-25">
          <mxGeometry width="50" height="50" relative="1" as="geometry">
            <mxPoint x="180" y="295" as="sourcePoint" />
            <mxPoint x="230" y="245" as="targetPoint" />
          </mxGeometry>
        </mxCell>
        <mxCell id="3sjaLSUX4elg7d6stFZi-115" value="" style="endArrow=none;html=1;exitX=1;exitY=0.75;exitDx=0;exitDy=0;entryX=0.088;entryY=0.628;entryDx=0;entryDy=0;entryPerimeter=0;" edge="1" parent="1" source="3sjaLSUX4elg7d6stFZi-6" target="3sjaLSUX4elg7d6stFZi-32">
          <mxGeometry width="50" height="50" relative="1" as="geometry">
            <mxPoint x="330" y="310" as="sourcePoint" />
            <mxPoint x="360" y="252" as="targetPoint" />
          </mxGeometry>
        </mxCell>
        <mxCell id="3sjaLSUX4elg7d6stFZi-116" value="" style="endArrow=none;html=1;exitX=1;exitY=0.75;exitDx=0;exitDy=0;entryX=0;entryY=0.75;entryDx=0;entryDy=0;" edge="1" parent="1" target="3sjaLSUX4elg7d6stFZi-4">
          <mxGeometry width="50" height="50" relative="1" as="geometry">
            <mxPoint x="432.96" y="250" as="sourcePoint" />
            <mxPoint x="480.00000000000017" y="250.23999999999995" as="targetPoint" />
          </mxGeometry>
        </mxCell>
        <mxCell id="3sjaLSUX4elg7d6stFZi-117" value="" style="endArrow=none;html=1;exitX=1;exitY=0.75;exitDx=0;exitDy=0;entryX=0.08;entryY=0.623;entryDx=0;entryDy=0;entryPerimeter=0;" edge="1" parent="1" source="3sjaLSUX4elg7d6stFZi-2" target="3sjaLSUX4elg7d6stFZi-80">
          <mxGeometry width="50" height="50" relative="1" as="geometry">
            <mxPoint x="170" y="570" as="sourcePoint" />
            <mxPoint x="310" y="473" as="targetPoint" />
          </mxGeometry>
        </mxCell>
        <mxCell id="3sjaLSUX4elg7d6stFZi-118" value="" style="endArrow=none;html=1;exitX=1;exitY=0.75;exitDx=0;exitDy=0;entryX=0;entryY=0.75;entryDx=0;entryDy=0;" edge="1" parent="1" target="3sjaLSUX4elg7d6stFZi-3">
          <mxGeometry width="50" height="50" relative="1" as="geometry">
            <mxPoint x="379.3" y="469.92" as="sourcePoint" />
            <mxPoint x="530" y="470" as="targetPoint" />
          </mxGeometry>
        </mxCell>
        <mxCell id="3sjaLSUX4elg7d6stFZi-119" value="" style="endArrow=none;html=1;entryX=0.426;entryY=0.968;entryDx=0;entryDy=0;entryPerimeter=0;exitX=0.569;exitY=-0.064;exitDx=0;exitDy=0;exitPerimeter=0;" edge="1" parent="1" source="3sjaLSUX4elg7d6stFZi-5" target="3sjaLSUX4elg7d6stFZi-95">
          <mxGeometry width="50" height="50" relative="1" as="geometry">
            <mxPoint x="170" y="630" as="sourcePoint" />
            <mxPoint x="220" y="580" as="targetPoint" />
          </mxGeometry>
        </mxCell>
        <mxCell id="3sjaLSUX4elg7d6stFZi-120" value="" style="endArrow=none;html=1;entryX=0.378;entryY=1.075;entryDx=0;entryDy=0;entryPerimeter=0;exitX=0.413;exitY=0.075;exitDx=0;exitDy=0;exitPerimeter=0;" edge="1" parent="1" source="3sjaLSUX4elg7d6stFZi-43" target="3sjaLSUX4elg7d6stFZi-4">
          <mxGeometry width="50" height="50" relative="1" as="geometry">
            <mxPoint x="360" y="440" as="sourcePoint" />
            <mxPoint x="410" y="390" as="targetPoint" />
          </mxGeometry>
        </mxCell>
      </root>
    </mxGraphModel>
  </diagram>
</mxfile>
